{
    "asset" : {
        "generator" : "Khronos glTF Blender I/O v1.5.17",
        "version" : "2.0"
    },
    "scene" : 0,
    "scenes" : [
        {
            "name" : "Scene",
            "nodes" : [
                0,
                1,
                2
            ]
        }
    ],
    "nodes" : [
        {
            "name" : "Light",
            "rotation" : [
                0.16907575726509094,
                0.7558803558349609,
                -0.27217137813568115,
                0.570947527885437
            ],
            "translation" : [
                4.076245307922363,
                5.903861999511719,
                -1.0054539442062378
            ]
        },
        {
            "name" : "Camera",
            "rotation" : [
                0.483536034822464,
                0.33687159419059753,
                -0.20870360732078552,
                0.7804827094078064
            ],
            "translation" : [
                7.358891487121582,
                4.958309173583984,
                6.925790786743164
            ]
        },
        {
            "mesh" : 0,
            "name" : "Dirndl03",
            "rotation" : [
                0.7071068286895752,
                0,
                0,
                0.7071067094802856
            ]
        }
    ],
    "materials" : [
        {
            "doubleSided" : true,
            "name" : "Muslin_28X36_FRONT_451762",
            "pbrMetallicRoughness" : {
                "baseColorTexture" : {
                    "index" : 0
                },
                "metallicFactor" : 0,
                "roughnessFactor" : 0.8212287425994873
            }
        },
        {
            "doubleSided" : true,
            "name" : "FABRIC_2_FRONT_451771",
            "pbrMetallicRoughness" : {
                "baseColorTexture" : {
                    "index" : 1
                },
                "metallicFactor" : 0,
                "roughnessFactor" : 0.8212287425994873
            }
        }
    ],
    "meshes" : [
        {
            "name" : "Dirndl03",
            "primitives" : [
                {
                    "attributes" : {
                        "POSITION" : 0,
                        "NORMAL" : 1,
                        "TEXCOORD_0" : 2
                    },
                    "indices" : 3,
                    "material" : 0
                },
                {
                    "attributes" : {
                        "POSITION" : 4,
                        "NORMAL" : 5,
                        "TEXCOORD_0" : 6
                    },
                    "indices" : 7,
                    "material" : 1
                }
            ]
        }
    ],
    "textures" : [
        {
            "sampler" : 0,
            "source" : 0
        },
        {
            "sampler" : 0,
            "source" : 0
        }
    ],
    "images" : [
        {
            "mimeType" : "image/png",
            "name" : "Dirndl03_diffuse",
            "uri" : "Dirndl03_diffuse.png"
        }
    ],
    "accessors" : [
        {
            "bufferView" : 0,
            "componentType" : 5126,
            "count" : 37427,
            "max" : [
                0.26445499062538147,
                0.2575809955596924,
                -0.3148689866065979
            ],
            "min" : [
                -0.28602200746536255,
                -0.18309099972248077,
                -1.5895570516586304
            ],
            "type" : "VEC3"
        },
        {
            "bufferView" : 1,
            "componentType" : 5126,
            "count" : 37427,
            "type" : "VEC3"
        },
        {
            "bufferView" : 2,
            "componentType" : 5126,
            "count" : 37427,
            "type" : "VEC2"
        },
        {
            "bufferView" : 3,
            "componentType" : 5123,
            "count" : 202818,
            "type" : "SCALAR"
        },
        {
            "bufferView" : 4,
            "componentType" : 5126,
            "count" : 14452,
            "max" : [
                0.283625990152359,
                0.2562589943408966,
                -0.24231700599193573
            ],
            "min" : [
                -0.2903130054473877,
                -0.17400600016117096,
                -1.6058440208435059
            ],
            "type" : "VEC3"
        },
        {
            "bufferView" : 5,
            "componentType" : 5126,
            "count" : 14452,
            "type" : "VEC3"
        },
        {
            "bufferView" : 6,
            "componentType" : 5126,
            "count" : 14452,
            "type" : "VEC2"
        },
        {
            "bufferView" : 7,
            "componentType" : 5123,
            "count" : 72324,
            "type" : "SCALAR"
        }
    ],
    "bufferViews" : [
        {
            "buffer" : 0,
            "byteLength" : 449124,
            "byteOffset" : 0
        },
        {
            "buffer" : 0,
            "byteLength" : 449124,
            "byteOffset" : 449124
        },
        {
            "buffer" : 0,
            "byteLength" : 299416,
            "byteOffset" : 898248
        },
        {
            "buffer" : 0,
            "byteLength" : 405636,
            "byteOffset" : 1197664
        },
        {
            "buffer" : 0,
            "byteLength" : 173424,
            "byteOffset" : 1603300
        },
        {
            "buffer" : 0,
            "byteLength" : 173424,
            "byteOffset" : 1776724
        },
        {
            "buffer" : 0,
            "byteLength" : 115616,
            "byteOffset" : 1950148
        },
        {
            "buffer" : 0,
            "byteLength" : 144648,
            "byteOffset" : 2065764
        }
    ],
    "samplers" : [
        {
            "magFilter" : 9729,
            "minFilter" : 9987
        }
    ],
    "buffers" : [
        {
            "byteLength" : 2210412,
            "uri" : "scene.bin"
        }
    ]
}
